<svg xmlns="http://www.w3.org/2000/svg" viewBox="0 0 500 140" role="img" aria-label="Relix — Relay Intelligence Exchange">
  <defs>
    <radialGradient id="logo-ember-l" cx="50%" cy="50%" r="50%">
      <stop offset="0%"  stop-color="#FFF7CC"/>
      <stop offset="35%" stop-color="#FCD34D"/>
      <stop offset="75%" stop-color="#F59E0B"/>
      <stop offset="100%" stop-color="#7C2D12" stop-opacity="0.95"/>
    </radialGradient>
    <radialGradient id="logo-halo-l" cx="50%" cy="50%" r="50%">
      <stop offset="0%"  stop-color="#F59E0B" stop-opacity="0.30"/>
      <stop offset="100%" stop-color="#F59E0B" stop-opacity="0"/>
    </radialGradient>
  </defs>

  <!-- Light background -->
  <rect width="500" height="140" fill="#FFFFFF"/>

  <!-- Vex icon (left), at 100x100 in 20..120 -->
  <g transform="translate(20,20) scale(0.4167)">
    <circle cx="120" cy="120" r="64" fill="url(#logo-halo-l)"/>
    <g fill="none" stroke="#0D1117" stroke-width="3" stroke-linecap="round" stroke-linejoin="round">
      <polyline points="124,118 158,108 196,82"/>
      <polyline points="125,124 168,124 212,118"/>
      <polyline points="124,132 168,150 210,168"/>
      <polyline points="120,140 148,178 168,220"/>
      <polyline points="116,118  82,108  44,82"/>
      <polyline points="115,124  72,124  28,118"/>
      <polyline points="116,132  72,150  30,168"/>
      <polyline points="120,140  92,178  72,220"/>
    </g>
    <g fill="#F59E0B">
      <circle cx="196" cy="82"  r="3"/>
      <circle cx="212" cy="118" r="3"/>
      <circle cx="210" cy="168" r="3"/>
      <circle cx="168" cy="220" r="3"/>
      <circle cx="44"  cy="82"  r="3"/>
      <circle cx="28"  cy="118" r="3"/>
      <circle cx="30"  cy="168" r="3"/>
      <circle cx="72"  cy="220" r="3"/>
    </g>
    <g stroke="#F59E0B" stroke-width="1.8" stroke-linejoin="round" stroke-linecap="round">
      <polygon points="124,108 168,60 200,30 184,72 148,86" fill="#F59E0B" fill-opacity="0.18"/>
      <polygon points="124,116 152,96 196,86 220,118 184,118 152,112" fill="#F59E0B" fill-opacity="0.15"/>
      <line x1="124" y1="108" x2="184" y2="72"/>
      <line x1="148" y1="86"  x2="200" y2="30"/>
      <line x1="124" y1="116" x2="196" y2="86"/>
      <line x1="152" y1="96"  x2="184" y2="118"/>
      <polygon points="116,108  72,60  40,30  56,72  92,86" fill="#F59E0B" fill-opacity="0.18"/>
      <polygon points="116,116  88,96  44,86  20,118  56,118  88,112" fill="#F59E0B" fill-opacity="0.15"/>
      <line x1="116" y1="108" x2="56"  y2="72"/>
      <line x1="92"  y1="86"  x2="40"  y2="30"/>
      <line x1="116" y1="116" x2="44"  y2="86"/>
      <line x1="88"  y1="96"  x2="56"  y2="118"/>
    </g>
    <g fill="#1E40AF">
      <circle cx="200" cy="30"  r="3.6"/>
      <circle cx="168" cy="60"  r="3"/>
      <circle cx="196" cy="86"  r="3"/>
      <circle cx="220" cy="118" r="3.6"/>
      <circle cx="40"  cy="30"  r="3.6"/>
      <circle cx="72"  cy="60"  r="3"/>
      <circle cx="44"  cy="86"  r="3"/>
      <circle cx="20"  cy="118" r="3.6"/>
    </g>
    <circle cx="120" cy="120" r="26" fill="url(#logo-ember-l)"/>
    <circle cx="120" cy="120" r="10" fill="#FFFBEB" opacity="0.92"/>
  </g>

  <!-- Wordmark -->
  <text x="140" y="78" font-family="-apple-system,BlinkMacSystemFont,'Segoe UI',Roboto,'Helvetica Neue',Arial,sans-serif" font-size="56" font-weight="700" letter-spacing="-1.5" fill="#0D1117">Relix</text>

  <!-- Tagline -->
  <text x="142" y="106" font-family="-apple-system,BlinkMacSystemFont,'Segoe UI',Roboto,'Helvetica Neue',Arial,sans-serif" font-size="15" font-weight="400" letter-spacing="2.5" fill="#6B7280">RELAY  INTELLIGENCE  EXCHANGE</text>
</svg>
